<svg width="1400" height="820" viewBox="0 0 1400 820" fill="none" xmlns="http://www.w3.org/2000/svg">
  <rect width="1400" height="820" fill="#FAFAF7"/>

  <!-- tablet / whiteboard surface -->
  <rect x="42" y="34" width="1316" height="752" rx="34" fill="#FFFDF8" stroke="#202633" stroke-width="4"/>
  <rect x="74" y="72" width="1252" height="674" rx="18" fill="#FFFDF8" stroke="#D8D2C4" stroke-width="2" stroke-dasharray="10 12"/>

  <!-- title -->
  <path d="M118 129C310 122 494 126 690 124" stroke="#202633" stroke-width="3" stroke-linecap="round"/>
  <text x="116" y="113" fill="#111827" font-family="Comic Sans MS, Segoe Print, Bradley Hand, cursive" font-size="32" font-weight="700">
    Helpdesk Architecture
  </text>
  <text x="118" y="155" fill="#475569" font-family="Comic Sans MS, Segoe Print, Bradley Hand, cursive" font-size="18">
    frontend + API + persistence + CI, mapped like a tablet sketch
  </text>

  <!-- frontend box -->
  <path d="M122 244C125 213 150 198 184 202C260 210 342 196 410 205C436 208 449 231 448 260C446 335 452 445 442 506C438 535 413 547 382 544C299 536 220 552 150 541C123 537 111 515 114 487C122 411 112 318 122 244Z" fill="#F8FAFC" stroke="#1E293B" stroke-width="4" stroke-linejoin="round"/>
  <text x="154" y="252" fill="#0F172A" font-family="Comic Sans MS, Segoe Print, Bradley Hand, cursive" font-size="26" font-weight="700">Frontend</text>
  <text x="155" y="286" fill="#334155" font-family="Comic Sans MS, Segoe Print, Bradley Hand, cursive" font-size="17">React + Vite + JavaScript</text>

  <path d="M154 321C220 315 310 316 399 321" stroke="#2563EB" stroke-width="3" stroke-linecap="round"/>
  <text x="155" y="352" fill="#111827" font-family="Comic Sans MS, Segoe Print, Bradley Hand, cursive" font-size="18">- Admin shell</text>
  <text x="155" y="386" fill="#111827" font-family="Comic Sans MS, Segoe Print, Bradley Hand, cursive" font-size="18">- Dashboard</text>
  <text x="155" y="420" fill="#111827" font-family="Comic Sans MS, Segoe Print, Bradley Hand, cursive" font-size="18">- Ticket queue</text>
  <text x="155" y="454" fill="#111827" font-family="Comic Sans MS, Segoe Print, Bradley Hand, cursive" font-size="18">- Ticket detail + forms</text>
  <text x="155" y="488" fill="#111827" font-family="Comic Sans MS, Segoe Print, Bradley Hand, cursive" font-size="18">- Services/api.js</text>

  <!-- api box -->
  <path d="M548 221C557 194 580 187 612 193C711 210 837 190 938 200C969 203 985 230 981 262C971 349 988 475 978 554C974 585 949 603 912 598C801 583 690 604 590 595C556 592 540 566 542 532C548 433 528 314 548 221Z" fill="#EFF6FF" stroke="#1D4ED8" stroke-width="4" stroke-linejoin="round"/>
  <text x="590" y="252" fill="#1E3A8A" font-family="Comic Sans MS, Segoe Print, Bradley Hand, cursive" font-size="26" font-weight="700">Backend API</text>
  <text x="590" y="286" fill="#334155" font-family="Comic Sans MS, Segoe Print, Bradley Hand, cursive" font-size="17">Django + Django REST Framework</text>

  <path d="M590 321C690 315 810 316 936 322" stroke="#1D4ED8" stroke-width="3" stroke-linecap="round"/>
  <text x="590" y="353" fill="#111827" font-family="Comic Sans MS, Segoe Print, Bradley Hand, cursive" font-size="18">- Token authentication</text>
  <text x="590" y="388" fill="#111827" font-family="Comic Sans MS, Segoe Print, Bradley Hand, cursive" font-size="18">- users app: auth + roles</text>
  <text x="590" y="423" fill="#111827" font-family="Comic Sans MS, Segoe Print, Bradley Hand, cursive" font-size="18">- tickets app: tickets, comments, history</text>
  <text x="590" y="458" fill="#111827" font-family="Comic Sans MS, Segoe Print, Bradley Hand, cursive" font-size="18">- serializers validate business rules</text>
  <text x="590" y="493" fill="#111827" font-family="Comic Sans MS, Segoe Print, Bradley Hand, cursive" font-size="18">- viewsets + REST endpoints</text>
  <text x="590" y="528" fill="#111827" font-family="Comic Sans MS, Segoe Print, Bradley Hand, cursive" font-size="18">- pagination, filters, dashboard metrics</text>

  <!-- database box -->
  <path d="M1074 270C1084 248 1108 240 1136 246C1192 258 1262 246 1288 271C1309 292 1301 347 1302 407C1304 484 1280 513 1228 510C1182 507 1121 520 1090 500C1062 482 1070 425 1067 374C1065 329 1058 294 1074 270Z" fill="#F0FDF4" stroke="#15803D" stroke-width="4" stroke-linejoin="round"/>
  <text x="1110" y="305" fill="#14532D" font-family="Comic Sans MS, Segoe Print, Bradley Hand, cursive" font-size="25" font-weight="700">Database</text>
  <text x="1108" y="340" fill="#334155" font-family="Comic Sans MS, Segoe Print, Bradley Hand, cursive" font-size="17">SQLite local</text>
  <text x="1108" y="371" fill="#334155" font-family="Comic Sans MS, Segoe Print, Bradley Hand, cursive" font-size="17">PostgreSQL-ready</text>
  <path d="M1107 398C1160 393 1214 393 1266 399" stroke="#15803D" stroke-width="3" stroke-linecap="round"/>
  <text x="1108" y="430" fill="#111827" font-family="Comic Sans MS, Segoe Print, Bradley Hand, cursive" font-size="18">- Users</text>
  <text x="1108" y="462" fill="#111827" font-family="Comic Sans MS, Segoe Print, Bradley Hand, cursive" font-size="18">- Tickets</text>
  <text x="1108" y="494" fill="#111827" font-family="Comic Sans MS, Segoe Print, Bradley Hand, cursive" font-size="18">- Comments</text>

  <!-- arrows -->
  <path d="M454 373C484 364 506 363 537 371" stroke="#2563EB" stroke-width="5" stroke-linecap="round"/>
  <path d="M518 353C526 360 535 366 543 372C531 377 519 383 507 389" stroke="#2563EB" stroke-width="5" stroke-linecap="round" stroke-linejoin="round"/>
  <text x="458" y="344" fill="#1D4ED8" font-family="Comic Sans MS, Segoe Print, Bradley Hand, cursive" font-size="17" font-weight="700">HTTP REST</text>
  <text x="464" y="396" fill="#1D4ED8" font-family="Comic Sans MS, Segoe Print, Bradley Hand, cursive" font-size="15">Authorization: Token</text>

  <path d="M986 384C1014 374 1035 376 1064 384" stroke="#2563EB" stroke-width="5" stroke-linecap="round"/>
  <path d="M1046 365C1054 372 1062 378 1070 385C1058 390 1047 395 1035 400" stroke="#2563EB" stroke-width="5" stroke-linecap="round" stroke-linejoin="round"/>
  <text x="1008" y="358" fill="#1D4ED8" font-family="Comic Sans MS, Segoe Print, Bradley Hand, cursive" font-size="17" font-weight="700">ORM</text>

  <!-- workflow strip -->
  <path d="M187 646C348 631 520 642 690 638C861 634 1041 628 1215 642C1238 644 1248 670 1234 692C1220 714 1178 704 1136 704C812 705 488 706 164 700C135 699 127 660 151 650C160 646 172 647 187 646Z" fill="#FFF7ED" stroke="#C2410C" stroke-width="3" stroke-linejoin="round"/>
  <text x="178" y="682" fill="#7C2D12" font-family="Comic Sans MS, Segoe Print, Bradley Hand, cursive" font-size="19" font-weight="700">CI / Quality:</text>
  <text x="292" y="682" fill="#334155" font-family="Comic Sans MS, Segoe Print, Bradley Hand, cursive" font-size="18">Django check + tests  |  React lint + build  |  GitHub Actions</text>

  <!-- small notes -->
  <path d="M108 595C210 584 306 588 411 594" stroke="#CBD5E1" stroke-width="3" stroke-linecap="round"/>
  <text x="111" y="623" fill="#64748B" font-family="Comic Sans MS, Segoe Print, Bradley Hand, cursive" font-size="15">UI is separated from backend rules</text>

  <path d="M777 144C889 133 1007 139 1118 145" stroke="#CBD5E1" stroke-width="3" stroke-linecap="round"/>
  <text x="781" y="172" fill="#64748B" font-family="Comic Sans MS, Segoe Print, Bradley Hand, cursive" font-size="15">Backend owns permissions + validation</text>
</svg>
